<?xml version="1.0" encoding="utf-8"?>
<!-- Generator: Adobe Illustrator 24.0.3, SVG Export Plug-In . SVG Version: 6.00 Build 0)  -->
<svg version="1.1"
	 id="svg2" inkscape:version="1.0 (4035a4f, 2020-05-01)" sodipodi:docname="goledger-newfont-horizontal.svg" xmlns:cc="http://creativecommons.org/ns#" xmlns:dc="http://purl.org/dc/elements/1.1/" xmlns:inkscape="http://www.inkscape.org/namespaces/inkscape" xmlns:rdf="http://www.w3.org/1999/02/22-rdf-syntax-ns#" xmlns:sodipodi="http://sodipodi.sourceforge.net/DTD/sodipodi-0.dtd" xmlns:svg="http://www.w3.org/2000/svg"
	 xmlns="http://www.w3.org/2000/svg" xmlns:xlink="http://www.w3.org/1999/xlink" x="0px" y="0px" viewBox="0 0 437.3 105.8"
	 style="enable-background:new 0 0 437.3 105.8;" xml:space="preserve">
<style type="text/css">
	.st0{fill:none;stroke:#F2F2F2;stroke-width:2.5665;stroke-miterlimit:3.2;}
	.st1{fill:none;stroke:#F2F2F2;stroke-width:0.8555;stroke-miterlimit:3.2;}
	.st2{fill:#F2F2F2;}
	.st3{fill:none;stroke:#000333;stroke-width:2.5665;stroke-miterlimit:3.2;}
	.st4{fill:none;stroke:#000333;stroke-width:0.8555;stroke-miterlimit:3.2;}
	.st5{fill:#333333;}
	.st6{font-family:'Poppins-Bold';}
	.st7{font-size:65.6389px;}
</style>
<sodipodi:namedview  bordercolor="#666666" borderopacity="1.0" id="base" inkscape:current-layer="layer1" inkscape:cx="494.82286" inkscape:cy="645.09781" inkscape:document-rotation="0" inkscape:document-units="px" inkscape:pageopacity="0.0" inkscape:pageshadow="2" inkscape:window-height="855" inkscape:window-maximized="1" inkscape:window-width="1440" inkscape:window-x="0" inkscape:window-y="23" inkscape:zoom="0.70926762" pagecolor="#ffffff" showgrid="false" showguides="false">
	</sodipodi:namedview>
<g>
	<g>
		<path id="path4169" inkscape:connector-curvature="0" sodipodi:nodetypes="accccscca" class="st0" d="M47.7,124.7
			c-0.8,0.3-2,1.7-2,1.7l-41,50.9l51.5,15.9l43.9-54c0,0,0.4-0.4,0.3-1.2c0-0.7-0.8-0.9-0.8-0.9l-48.8-12
			C50.8,125.1,48.7,124.4,47.7,124.7L47.7,124.7z"/>
		<path id="path4231" inkscape:connector-curvature="0" sodipodi:nodetypes="ccccc" class="st0" d="M4.7,177.5v23.4l53.6,17.5
			l40.5-51.3v-11.3"/>
		<path id="path4169-5" inkscape:connector-curvature="0" sodipodi:nodetypes="accsccsccscca" class="st1" d="M45.9,139.1
			c-0.5,0.2-1.2,1.1-1.2,1.1l-3.9,5.1c0,0-0.3,0.3-0.2,0.9c0.1,0.6,0.5,0.6,0.5,0.6l30.8,7.5c0,0,0.7,0.3,1.4,0.1
			c0.7-0.2,1-0.7,1-0.7l3.8-5.6c0,0,0.2-0.3,0.2-0.8s-0.5-0.6-0.5-0.6l-30-7.4C47.8,139.3,46.5,138.9,45.9,139.1L45.9,139.1z"/>
	</g>
	<g>
		<ellipse id="path4184" class="st2" cx="5.8" cy="177" rx="6.4" ry="6.7"/>
		<ellipse id="path4184-2" class="st2" cx="6" cy="202" rx="6.4" ry="6.7"/>
		<ellipse id="path4184-4" class="st2" cx="57.5" cy="218.8" rx="6.4" ry="6.7"/>
		<ellipse id="path4184-3" class="st2" cx="98.8" cy="137.4" rx="6.4" ry="6.7"/>
		<ellipse id="path4184-7" class="st2" cx="47.3" cy="126.4" rx="6.4" ry="6.7"/>
		<ellipse id="path4184-4-9" class="st2" cx="56.2" cy="192.9" rx="6.4" ry="6.7"/>
	</g>
	<text transform="matrix(1 0 0 1 115.9404 196.3396)" class="st2 st6 st7">GoLedger</text>
</g>
<sodipodi:namedview  bordercolor="#666666" borderopacity="1.0" id="base" inkscape:current-layer="layer1" inkscape:cx="494.82286" inkscape:cy="645.09781" inkscape:document-rotation="0" inkscape:document-units="px" inkscape:pageopacity="0.0" inkscape:pageshadow="2" inkscape:window-height="855" inkscape:window-maximized="1" inkscape:window-width="1440" inkscape:window-x="0" inkscape:window-y="23" inkscape:zoom="0.70926762" pagecolor="#ffffff" showgrid="false" showguides="false">
	</sodipodi:namedview>
<g>
	<path id="path4169_1_" inkscape:connector-curvature="0" sodipodi:nodetypes="accccscca" class="st3" d="M47.7,5
		c-0.8,0.3-2,1.7-2,1.7l-41,50.9l51.5,15.9l43.9-54c0,0,0.4-0.4,0.3-1.2c0-0.7-0.8-0.9-0.8-0.9l-48.8-12C50.8,5.4,48.7,4.7,47.7,5
		L47.7,5z"/>
	<path id="path4231_1_" inkscape:connector-curvature="0" sodipodi:nodetypes="ccccc" class="st3" d="M4.7,57.8v23.4l53.6,17.5
		l40.5-51.3V36.1"/>
	<path id="path4169-5_1_" inkscape:connector-curvature="0" sodipodi:nodetypes="accsccsccscca" class="st4" d="M45.9,19.4
		c-0.5,0.2-1.2,1.1-1.2,1.1l-3.9,5.1c0,0-0.3,0.3-0.2,0.9s0.5,0.6,0.5,0.6l30.8,7.5c0,0,0.7,0.3,1.4,0.1c0.7-0.2,1-0.7,1-0.7
		l3.8-5.6c0,0,0.2-0.3,0.2-0.8S77.8,27,77.8,27l-30-7.4C47.8,19.6,46.5,19.2,45.9,19.4L45.9,19.4z"/>
</g>
<g>
	<g>
		<ellipse id="path4184_1_" class="st5" cx="5.8" cy="57.3" rx="6.4" ry="6.7"/>
		<ellipse id="path4184-2_1_" class="st5" cx="6" cy="82.3" rx="6.4" ry="6.7"/>
		<ellipse id="path4184-4_1_" class="st5" cx="57.5" cy="99.1" rx="6.4" ry="6.7"/>
		<ellipse id="path4184-3_1_" class="st5" cx="98.8" cy="17.7" rx="6.4" ry="6.7"/>
		<ellipse id="path4184-7_1_" class="st5" cx="47.3" cy="6.7" rx="6.4" ry="6.7"/>
		<ellipse id="path4184-4-9_1_" class="st5" cx="56.2" cy="73.2" rx="6.4" ry="6.7"/>
	</g>
	<text transform="matrix(1 0 0 1 115.9404 76.5974)" class="st5 st6 st7">GoLedger</text>
</g>
</svg>
