<svg width="440" height="109" viewBox="0 0 440 109" fill="none" xmlns="http://www.w3.org/2000/svg">
<path d="M48.3 5C47.5 5.3 46.3 6.7 46.3 6.7L5.30002 57.6L56.8 73.5L100.7 19.5C100.7 19.5 101.1 19.1 101 18.3C101 17.6 100.2 17.4 100.2 17.4L51.4 5.4C51.4 5.4 49.3 4.7 48.3 5Z" stroke="white" stroke-width="2.5665" stroke-miterlimit="3.2"/>
<path d="M5.30002 57.8V81.2L58.9 98.7L99.4 47.4V36.1" stroke="white" stroke-width="2.5665" stroke-miterlimit="3.2"/>
<path d="M46.5 19.4C46 19.6 45.3 20.5 45.3 20.5L41.4 25.6C41.4 25.6 41.1 25.9 41.2 26.5C41.3 27.1 41.7 27.1 41.7 27.1L72.5 34.6C72.5 34.6 73.2 34.9 73.9 34.7C74.6 34.5 74.9 34 74.9 34L78.7 28.4C78.7 28.4 78.9 28.1 78.9 27.6C78.9 27.1 78.4 27 78.4 27L48.4 19.6C48.4 19.6 47.1 19.2 46.5 19.4Z" stroke="white" stroke-width="0.8555" stroke-miterlimit="3.2"/>
<path d="M12.3 57.3C12.3 60.746 9.63714 63.5 6.4 63.5C3.16286 63.5 0.5 60.746 0.5 57.3C0.5 53.854 3.16286 51.1 6.4 51.1C9.63714 51.1 12.3 53.854 12.3 57.3Z" fill="white" stroke="white"/>
<path d="M12.5 82.3C12.5 85.746 9.83712 88.5 6.59998 88.5C3.36284 88.5 0.699982 85.746 0.699982 82.3C0.699982 78.854 3.36284 76.1 6.59998 76.1C9.83712 76.1 12.5 78.854 12.5 82.3Z" fill="white" stroke="white"/>
<path d="M64 99.1C64 102.546 61.3371 105.3 58.1 105.3C54.8628 105.3 52.2 102.546 52.2 99.1C52.2 95.654 54.8628 92.9 58.1 92.9C61.3371 92.9 64 95.654 64 99.1Z" fill="white" stroke="white"/>
<path d="M105.3 17.7C105.3 21.146 102.637 23.9 99.4 23.9C96.1628 23.9 93.5 21.146 93.5 17.7C93.5 14.254 96.1628 11.5 99.4 11.5C102.637 11.5 105.3 14.254 105.3 17.7Z" fill="white" stroke="white"/>
<path d="M53.8 6.7C53.8 10.146 51.1371 12.9 47.9 12.9C44.6628 12.9 42 10.146 42 6.7C42 3.254 44.6628 0.5 47.9 0.5C51.1371 0.5 53.8 3.254 53.8 6.7Z" fill="white" stroke="white"/>
<path d="M62.7 73.2C62.7 76.646 60.0371 79.4 56.8 79.4C53.5629 79.4 50.9 76.646 50.9 73.2C50.9 69.754 53.5629 67 56.8 67C60.0371 67 62.7 69.754 62.7 73.2Z" fill="white" stroke="white"/>
<path d="M142.14 36.0923C147.96 36.0923 152.751 37.5145 156.514 40.3588C160.278 43.2032 162.619 47.054 163.538 51.9113H151.657C150.87 50.2484 149.666 48.9357 148.047 47.973C146.428 46.9665 144.481 46.4633 142.205 46.4633C138.661 46.4633 135.816 47.6666 133.672 50.0734C131.528 52.4364 130.456 55.6527 130.456 59.7223C130.456 64.142 131.572 67.5334 133.803 69.8964C136.079 72.2594 139.295 73.4409 143.452 73.4409C146.122 73.4409 148.463 72.7188 150.476 71.2748C152.489 69.787 153.911 67.6865 154.742 64.9734H140.564V56.8999H164.129V67.9928C163.253 70.7059 161.853 73.2221 159.928 75.5413C158.002 77.8605 155.53 79.7422 152.511 81.1862C149.535 82.6303 146.122 83.3523 142.271 83.3523C137.589 83.3523 133.497 82.3677 129.996 80.3986C126.496 78.3857 123.783 75.5851 121.857 71.9968C119.976 68.4085 119.035 64.317 119.035 59.7223C119.035 55.1276 119.976 51.0361 121.857 47.4479C123.783 43.8596 126.474 41.0809 129.931 39.1117C133.431 37.0988 137.501 36.0923 142.14 36.0923ZM187.543 45.8725C191.175 45.8725 194.413 46.6383 197.258 48.1699C200.146 49.6577 202.4 51.8238 204.019 54.6681C205.681 57.5125 206.513 60.8382 206.513 64.6452C206.513 68.4523 205.681 71.778 204.019 74.6224C202.4 77.4667 200.146 79.6547 197.258 81.1862C194.413 82.6741 191.175 83.418 187.543 83.418C183.911 83.418 180.651 82.6741 177.763 81.1862C174.875 79.6547 172.599 77.4667 170.937 74.6224C169.318 71.778 168.508 68.4523 168.508 64.6452C168.508 60.8382 169.318 57.5125 170.937 54.6681C172.599 51.8238 174.875 49.6577 177.763 48.1699C180.651 46.6383 183.911 45.8725 187.543 45.8725ZM187.543 55.5871C185.399 55.5871 183.583 56.3747 182.095 57.9501C180.651 59.4816 179.929 61.7134 179.929 64.6452C179.929 67.5771 180.651 69.8088 182.095 71.3404C183.583 72.872 185.399 73.6378 187.543 73.6378C189.687 73.6378 191.482 72.872 192.926 71.3404C194.37 69.8088 195.092 67.5771 195.092 64.6452C195.092 61.7134 194.37 59.4816 192.926 57.9501C191.482 56.3747 189.687 55.5871 187.543 55.5871ZM223.557 74.3598H238.523V82.9585H212.333V36.5518H223.557V74.3598ZM278.467 63.6607C278.467 64.5796 278.358 65.5861 278.139 66.68H252.737C252.868 69.4369 253.568 71.4279 254.837 72.6532C256.106 73.8347 257.725 74.4254 259.694 74.4254C261.357 74.4254 262.736 74.0097 263.829 73.1783C264.923 72.3469 265.645 71.2748 265.996 69.962H277.876C277.395 72.5438 276.345 74.863 274.726 76.9197C273.106 78.9326 271.05 80.5299 268.555 81.7114C266.061 82.8491 263.282 83.418 260.219 83.418C256.631 83.418 253.437 82.6741 250.636 81.1862C247.879 79.6547 245.713 77.4667 244.138 74.6224C242.562 71.778 241.775 68.4523 241.775 64.6452C241.775 60.7944 242.541 57.4687 244.072 54.6681C245.648 51.8238 247.835 49.6577 250.636 48.1699C253.437 46.6383 256.631 45.8725 260.219 45.8725C263.851 45.8725 267.046 46.6164 269.803 48.1042C272.559 49.5921 274.682 51.6925 276.17 54.4056C277.701 57.0749 278.467 60.1599 278.467 63.6607ZM267.111 61.954C267.155 59.5473 266.499 57.7532 265.142 56.5717C263.829 55.3464 262.189 54.7338 260.219 54.7338C258.163 54.7338 256.456 55.3464 255.1 56.5717C253.743 57.7969 252.977 59.591 252.802 61.954H267.111ZM298.234 45.8725C301.034 45.8725 303.441 46.507 305.454 47.776C307.467 49.0451 308.933 50.7736 309.852 52.9615V34.3857H321.076V82.9585H309.852V76.329C308.933 78.5169 307.467 80.2454 305.454 81.5144C303.441 82.7835 301.034 83.418 298.234 83.418C295.214 83.418 292.501 82.6741 290.094 81.1862C287.731 79.6547 285.85 77.4667 284.449 74.6224C283.093 71.778 282.415 68.4523 282.415 64.6452C282.415 60.7944 283.093 57.4687 284.449 54.6681C285.85 51.8238 287.731 49.6577 290.094 48.1699C292.501 46.6383 295.214 45.8725 298.234 45.8725ZM301.844 55.7184C299.437 55.7184 297.49 56.506 296.002 58.0814C294.558 59.6567 293.836 61.8446 293.836 64.6452C293.836 67.4458 294.558 69.6338 296.002 71.2091C297.49 72.7845 299.437 73.5721 301.844 73.5721C304.207 73.5721 306.132 72.7626 307.62 71.1435C309.151 69.5244 309.917 67.3583 309.917 64.6452C309.917 61.8884 309.151 59.7223 307.62 58.147C306.132 56.5279 304.207 55.7184 301.844 55.7184ZM342.719 45.8725C345.52 45.8725 347.927 46.507 349.94 47.776C351.952 49.0451 353.44 50.7736 354.403 52.9615V46.332H365.562V82.7616C365.562 86.1748 364.905 89.238 363.592 91.951C362.28 94.7079 360.267 96.8958 357.554 98.5149C354.841 100.134 351.471 100.944 347.445 100.944C341.932 100.944 337.512 99.6308 334.186 97.0052C330.904 94.4234 328.935 90.9008 328.279 86.4374H339.372C339.722 87.9252 340.509 89.0848 341.735 89.9162C343.004 90.7476 344.645 91.1634 346.658 91.1634C348.977 91.1634 350.837 90.4851 352.237 89.1286C353.681 87.8158 354.403 85.6935 354.403 82.7616V76.329C353.44 78.5169 351.952 80.2454 349.94 81.5144C347.927 82.7835 345.52 83.418 342.719 83.418C339.7 83.418 336.987 82.6741 334.58 81.1862C332.217 79.6547 330.335 77.4667 328.935 74.6224C327.579 71.778 326.9 68.4523 326.9 64.6452C326.9 60.7944 327.579 57.4687 328.935 54.6681C330.335 51.8238 332.217 49.6577 334.58 48.1699C336.987 46.6383 339.7 45.8725 342.719 45.8725ZM346.329 55.7184C343.923 55.7184 341.975 56.506 340.488 58.0814C339.043 59.6567 338.321 61.8446 338.321 64.6452C338.321 67.4458 339.043 69.6338 340.488 71.2091C341.975 72.7845 343.923 73.5721 346.329 73.5721C348.692 73.5721 350.618 72.7626 352.106 71.1435C353.637 69.5244 354.403 67.3583 354.403 64.6452C354.403 61.8884 353.637 59.7223 352.106 58.147C350.618 56.5279 348.692 55.7184 346.329 55.7184ZM408.078 63.6607C408.078 64.5796 407.969 65.5861 407.75 66.68H382.348C382.479 69.4369 383.179 71.4279 384.448 72.6532C385.717 73.8347 387.336 74.4254 389.305 74.4254C390.968 74.4254 392.347 74.0097 393.441 73.1783C394.535 72.3469 395.257 71.2748 395.607 69.962H407.487C407.006 72.5438 405.956 74.863 404.337 76.9197C402.718 78.9326 400.661 80.5299 398.167 81.7114C395.672 82.8491 392.894 83.418 389.831 83.418C386.242 83.418 383.048 82.6741 380.247 81.1862C377.49 79.6547 375.324 77.4667 373.749 74.6224C372.174 71.778 371.386 68.4523 371.386 64.6452C371.386 60.7944 372.152 57.4687 373.683 54.6681C375.259 51.8238 377.447 49.6577 380.247 48.1699C383.048 46.6383 386.242 45.8725 389.831 45.8725C393.463 45.8725 396.657 46.6164 399.414 48.1042C402.171 49.5921 404.293 51.6925 405.781 54.4056C407.312 57.0749 408.078 60.1599 408.078 63.6607ZM396.723 61.954C396.766 59.5473 396.11 57.7532 394.753 56.5717C393.441 55.3464 391.8 54.7338 389.831 54.7338C387.774 54.7338 386.067 55.3464 384.711 56.5717C383.354 57.7969 382.588 59.591 382.413 61.954H396.723ZM425.153 53.2241C426.554 50.9924 428.348 49.2201 430.536 47.9073C432.768 46.5945 435.174 45.9382 437.756 45.9382V57.9501H434.54C431.564 57.9501 429.245 58.5846 427.582 59.8536C425.963 61.1226 425.153 63.2668 425.153 66.2862V82.9585H413.929V46.332H425.153V53.2241Z" fill="white"/>
</svg>
