<svg width="440" height="109" viewBox="0 0 440 109" fill="none" xmlns="http://www.w3.org/2000/svg">
<path d="M48.7 5C47.9 5.3 46.7 6.7 46.7 6.7L5.70001 57.6L57.2 73.5L101.1 19.5C101.1 19.5 101.5 19.1 101.4 18.3C101.4 17.6 100.6 17.4 100.6 17.4L51.8 5.4C51.8 5.4 49.7 4.7 48.7 5Z" stroke="#343434" stroke-width="2.5665" stroke-miterlimit="3.2"/>
<path d="M5.70001 57.8V81.2L59.3 98.7L99.8 47.4V36.1" stroke="#343434" stroke-width="2.5665" stroke-miterlimit="3.2"/>
<path d="M46.9 19.4C46.4 19.6 45.7 20.5 45.7 20.5L41.8 25.6C41.8 25.6 41.5 25.9 41.6 26.5C41.7 27.1 42.1 27.1 42.1 27.1L72.9 34.6C72.9 34.6 73.6 34.9 74.3 34.7C75 34.5 75.3 34 75.3 34L79.1 28.4C79.1 28.4 79.3 28.1 79.3 27.6C79.3 27.1 78.8 27 78.8 27L48.8 19.6C48.8 19.6 47.5 19.2 46.9 19.4Z" stroke="#343434" stroke-width="0.8555" stroke-miterlimit="3.2"/>
<path d="M12.7 57.3C12.7 60.746 10.0371 63.5 6.79999 63.5C3.56285 63.5 0.899994 60.746 0.899994 57.3C0.899994 53.854 3.56285 51.1 6.79999 51.1C10.0371 51.1 12.7 53.854 12.7 57.3Z" fill="#343434" stroke="#343434"/>
<path d="M12.9 82.3C12.9 85.746 10.2371 88.5 6.99998 88.5C3.76283 88.5 1.09998 85.746 1.09998 82.3C1.09998 78.854 3.76283 76.1 6.99998 76.1C10.2371 76.1 12.9 78.854 12.9 82.3Z" fill="#343434" stroke="#343434"/>
<path d="M64.4 99.1C64.4 102.546 61.7371 105.3 58.5 105.3C55.2628 105.3 52.6 102.546 52.6 99.1C52.6 95.654 55.2628 92.9 58.5 92.9C61.7371 92.9 64.4 95.654 64.4 99.1Z" fill="#343434" stroke="#343434"/>
<path d="M105.7 17.7C105.7 21.146 103.037 23.9 99.8 23.9C96.5628 23.9 93.9 21.146 93.9 17.7C93.9 14.254 96.5628 11.5 99.8 11.5C103.037 11.5 105.7 14.254 105.7 17.7Z" fill="#343434" stroke="#343434"/>
<path d="M54.2 6.7C54.2 10.146 51.5371 12.9 48.3 12.9C45.0628 12.9 42.4 10.146 42.4 6.7C42.4 3.254 45.0628 0.5 48.3 0.5C51.5371 0.5 54.2 3.254 54.2 6.7Z" fill="#343434" stroke="#343434"/>
<path d="M63.1 73.2C63.1 76.646 60.4371 79.4 57.2 79.4C53.9628 79.4 51.3 76.646 51.3 73.2C51.3 69.754 53.9628 67 57.2 67C60.4371 67 63.1 69.754 63.1 73.2Z" fill="#343434" stroke="#343434"/>
<path d="M142.54 36.0923C148.36 36.0923 153.151 37.5145 156.914 40.3588C160.678 43.2032 163.019 47.054 163.938 51.9113H152.057C151.27 50.2484 150.066 48.9357 148.447 47.973C146.828 46.9665 144.881 46.4633 142.605 46.4633C139.061 46.4633 136.216 47.6666 134.072 50.0734C131.928 52.4364 130.856 55.6527 130.856 59.7223C130.856 64.142 131.972 67.5334 134.203 69.8964C136.479 72.2594 139.695 73.4409 143.852 73.4409C146.522 73.4409 148.863 72.7188 150.876 71.2748C152.889 69.787 154.311 67.6865 155.142 64.9734H140.964V56.8999H164.529V67.9928C163.653 70.7059 162.253 73.2221 160.328 75.5413C158.402 77.8605 155.93 79.7422 152.911 81.1862C149.935 82.6303 146.522 83.3523 142.671 83.3523C137.989 83.3523 133.897 82.3677 130.396 80.3986C126.896 78.3857 124.183 75.5851 122.257 71.9968C120.376 68.4085 119.435 64.317 119.435 59.7223C119.435 55.1276 120.376 51.0361 122.257 47.4479C124.183 43.8596 126.874 41.0809 130.331 39.1117C133.831 37.0988 137.901 36.0923 142.54 36.0923ZM187.943 45.8725C191.575 45.8725 194.813 46.6383 197.658 48.1699C200.546 49.6577 202.8 51.8238 204.419 54.6681C206.081 57.5125 206.913 60.8382 206.913 64.6452C206.913 68.4523 206.081 71.778 204.419 74.6224C202.8 77.4667 200.546 79.6547 197.658 81.1862C194.813 82.6741 191.575 83.418 187.943 83.418C184.311 83.418 181.051 82.6741 178.163 81.1862C175.275 79.6547 172.999 77.4667 171.337 74.6224C169.717 71.778 168.908 68.4523 168.908 64.6452C168.908 60.8382 169.717 57.5125 171.337 54.6681C172.999 51.8238 175.275 49.6577 178.163 48.1699C181.051 46.6383 184.311 45.8725 187.943 45.8725ZM187.943 55.5871C185.799 55.5871 183.983 56.3747 182.495 57.9501C181.051 59.4816 180.329 61.7134 180.329 64.6452C180.329 67.5771 181.051 69.8088 182.495 71.3404C183.983 72.872 185.799 73.6378 187.943 73.6378C190.087 73.6378 191.882 72.872 193.326 71.3404C194.77 69.8088 195.492 67.5771 195.492 64.6452C195.492 61.7134 194.77 59.4816 193.326 57.9501C191.882 56.3747 190.087 55.5871 187.943 55.5871ZM223.957 74.3598H238.923V82.9585H212.733V36.5518H223.957V74.3598ZM278.867 63.6607C278.867 64.5796 278.758 65.5861 278.539 66.68H253.137C253.268 69.4369 253.968 71.4279 255.237 72.6532C256.506 73.8347 258.125 74.4254 260.094 74.4254C261.757 74.4254 263.136 74.0097 264.229 73.1783C265.323 72.3469 266.045 71.2748 266.396 69.962H278.276C277.795 72.5438 276.745 74.863 275.126 76.9197C273.506 78.9326 271.45 80.5299 268.955 81.7114C266.461 82.8491 263.682 83.418 260.619 83.418C257.031 83.418 253.837 82.6741 251.036 81.1862C248.279 79.6547 246.113 77.4667 244.538 74.6224C242.962 71.778 242.175 68.4523 242.175 64.6452C242.175 60.7944 242.941 57.4687 244.472 54.6681C246.048 51.8238 248.235 49.6577 251.036 48.1699C253.837 46.6383 257.031 45.8725 260.619 45.8725C264.251 45.8725 267.446 46.6164 270.203 48.1042C272.959 49.5921 275.082 51.6925 276.57 54.4056C278.101 57.0749 278.867 60.1599 278.867 63.6607ZM267.511 61.954C267.555 59.5473 266.899 57.7532 265.542 56.5717C264.229 55.3464 262.589 54.7338 260.619 54.7338C258.563 54.7338 256.856 55.3464 255.5 56.5717C254.143 57.7969 253.377 59.591 253.202 61.954H267.511ZM298.633 45.8725C301.434 45.8725 303.841 46.507 305.854 47.776C307.867 49.0451 309.333 50.7736 310.252 52.9615V34.3857H321.476V82.9585H310.252V76.329C309.333 78.5169 307.867 80.2454 305.854 81.5144C303.841 82.7835 301.434 83.418 298.633 83.418C295.614 83.418 292.901 82.6741 290.494 81.1862C288.131 79.6547 286.25 77.4667 284.849 74.6224C283.493 71.778 282.815 68.4523 282.815 64.6452C282.815 60.7944 283.493 57.4687 284.849 54.6681C286.25 51.8238 288.131 49.6577 290.494 48.1699C292.901 46.6383 295.614 45.8725 298.633 45.8725ZM302.244 55.7184C299.837 55.7184 297.89 56.506 296.402 58.0814C294.958 59.6567 294.236 61.8446 294.236 64.6452C294.236 67.4458 294.958 69.6338 296.402 71.2091C297.89 72.7845 299.837 73.5721 302.244 73.5721C304.607 73.5721 306.532 72.7626 308.02 71.1435C309.551 69.5244 310.317 67.3583 310.317 64.6452C310.317 61.8884 309.551 59.7223 308.02 58.147C306.532 56.5279 304.607 55.7184 302.244 55.7184ZM343.119 45.8725C345.92 45.8725 348.327 46.507 350.34 47.776C352.352 49.0451 353.84 50.7736 354.803 52.9615V46.332H365.962V82.7616C365.962 86.1748 365.305 89.238 363.992 91.951C362.68 94.7079 360.667 96.8958 357.954 98.5149C355.241 100.134 351.871 100.944 347.845 100.944C342.332 100.944 337.912 99.6308 334.586 97.0052C331.304 94.4234 329.335 90.9008 328.679 86.4374H339.772C340.122 87.9252 340.909 89.0848 342.135 89.9162C343.404 90.7476 345.045 91.1634 347.058 91.1634C349.377 91.1634 351.237 90.4851 352.637 89.1286C354.081 87.8158 354.803 85.6935 354.803 82.7616V76.329C353.84 78.5169 352.352 80.2454 350.34 81.5144C348.327 82.7835 345.92 83.418 343.119 83.418C340.1 83.418 337.387 82.6741 334.98 81.1862C332.617 79.6547 330.735 77.4667 329.335 74.6224C327.979 71.778 327.3 68.4523 327.3 64.6452C327.3 60.7944 327.979 57.4687 329.335 54.6681C330.735 51.8238 332.617 49.6577 334.98 48.1699C337.387 46.6383 340.1 45.8725 343.119 45.8725ZM346.729 55.7184C344.323 55.7184 342.375 56.506 340.888 58.0814C339.443 59.6567 338.721 61.8446 338.721 64.6452C338.721 67.4458 339.443 69.6338 340.888 71.2091C342.375 72.7845 344.323 73.5721 346.729 73.5721C349.092 73.5721 351.018 72.7626 352.506 71.1435C354.037 69.5244 354.803 67.3583 354.803 64.6452C354.803 61.8884 354.037 59.7223 352.506 58.147C351.018 56.5279 349.092 55.7184 346.729 55.7184ZM408.478 63.6607C408.478 64.5796 408.369 65.5861 408.15 66.68H382.748C382.879 69.4369 383.579 71.4279 384.848 72.6532C386.117 73.8347 387.736 74.4254 389.705 74.4254C391.368 74.4254 392.747 74.0097 393.841 73.1783C394.935 72.3469 395.657 71.2748 396.007 69.962H407.887C407.406 72.5438 406.356 74.863 404.737 76.9197C403.118 78.9326 401.061 80.5299 398.567 81.7114C396.072 82.8491 393.294 83.418 390.231 83.418C386.642 83.418 383.448 82.6741 380.647 81.1862C377.89 79.6547 375.724 77.4667 374.149 74.6224C372.574 71.778 371.786 68.4523 371.786 64.6452C371.786 60.7944 372.552 57.4687 374.083 54.6681C375.659 51.8238 377.847 49.6577 380.647 48.1699C383.448 46.6383 386.642 45.8725 390.231 45.8725C393.863 45.8725 397.057 46.6164 399.814 48.1042C402.571 49.5921 404.693 51.6925 406.181 54.4056C407.712 57.0749 408.478 60.1599 408.478 63.6607ZM397.123 61.954C397.166 59.5473 396.51 57.7532 395.153 56.5717C393.841 55.3464 392.2 54.7338 390.231 54.7338C388.174 54.7338 386.467 55.3464 385.111 56.5717C383.754 57.7969 382.988 59.591 382.813 61.954H397.123ZM425.553 53.2241C426.954 50.9924 428.748 49.2201 430.936 47.9073C433.168 46.5945 435.574 45.9382 438.156 45.9382V57.9501H434.94C431.964 57.9501 429.645 58.5846 427.982 59.8536C426.363 61.1226 425.553 63.2668 425.553 66.2862V82.9585H414.329V46.332H425.553V53.2241Z" fill="#343434"/>
</svg>
